<?xml version="1.0" standalone="no"?>
<!DOCTYPE svg PUBLIC "-//W3C//DTD SVG 20010904//EN"
 "http://www.w3.org/TR/2001/REC-SVG-20010904/DTD/svg10.dtd">
<svg version="1.0" xmlns="http://www.w3.org/2000/svg"
 width="54.28pt" height="20.000000pt" viewBox="0 0 247.000000 91.000000"
 preserveAspectRatio="xMidYMid meet">

<g transform="translate(0.000000,91.000000) scale(0.100000,-0.100000)"
fill="#ffffff" stroke="none">
<path d="M410 694 l0 -104 -150 0 c-143 0 -150 -1 -150 -20 0 -19 7 -20 151
-20 l152 0 -6 -66 c-11 -118 -67 -209 -168 -274 -50 -32 -55 -38 -39 -48 14
-8 27 -4 67 23 103 69 157 157 176 286 l11 79 133 0 c126 0 133 1 133 20 0 19
-7 20 -136 20 l-136 0 4 99 c4 97 3 100 -19 104 -23 4 -23 3 -23 -99z"/>
<path d="M2030 706 l0 -86 -140 0 c-133 0 -140 -1 -140 -20 0 -19 7 -20 140
-20 105 0 140 -3 141 -12 4 -78 -5 -335 -13 -345 -5 -7 -29 -15 -53 -19 -40
-5 -43 -8 -32 -25 8 -13 19 -17 37 -13 48 11 81 27 90 45 6 10 10 97 10 193
l0 175 142 3 c127 3 143 5 146 21 3 16 -9 17 -144 17 l-147 0 5 80 c3 44 1 80
-3 80 -4 0 -14 3 -23 6 -14 5 -16 -6 -16 -80z"/>
<path d="M1000 460 c0 -233 1 -240 20 -240 16 0 20 7 20 35 l0 35 190 0 190 0
0 -30 c0 -23 4 -30 20 -30 19 0 20 7 20 235 l0 235 -230 0 -230 0 0 -240z
m420 35 l0 -165 -190 0 -190 0 0 165 0 165 190 0 190 0 0 -165z"/>
<path d="M1822 433 c-7 -21 -29 -61 -51 -90 -22 -28 -37 -54 -34 -57 16 -16
36 -1 69 52 21 31 45 69 55 83 13 20 15 29 6 38 -20 20 -34 12 -45 -26z"/>
<path d="M2232 458 c-9 -9 -6 -18 12 -37 14 -15 40 -52 59 -83 26 -43 37 -54
46 -45 17 17 14 25 -33 91 -56 78 -69 89 -84 74z"/>
</g>
</svg>
